<svg id="Layer_1" height="512" viewBox="0 0 512 512" width="512" xmlns="http://www.w3.org/2000/svg" data-name="Layer 1"><path d="m78.35 11h-30a33.353 33.353 0 0 0 -33.35 33.37v240.36a33.267 33.267 0 0 0 33.35 33.27h30a33.267 33.267 0 0 1 -33.35-33.27v-240.36a33.353 33.353 0 0 1 33.35-33.37z" fill="#d4e1f4"/><path d="m447 381.715v-6.852c0-11.758-9.874-20.863-21.631-20.863h-348.112a9.615 9.615 0 0 1 -9.257-9.262v-26.738h-12v26.738a21.617 21.617 0 0 0 21.257 21.262h80.7a8.713 8.713 0 0 1 9.043 8.863v6.587a62.806 62.806 0 1 0 65.61 62.741 62.325 62.325 0 0 0 -53.61-62.116v-7.212c0-3.346-.516-6.863-1.9-8.863h114.07a8.539 8.539 0 0 1 8.83 8.863v6.667c-32 2.124-58.458 29.408-58.458 62.661a62.779 62.779 0 1 0 70.458-62.291v-7.032c0-3.346-.3-6.863-1.683-8.863h115.052c5.141 0 9.631 3.722 9.631 8.863v6.775c-32 2.8-57.449 29.779-57.449 62.553a62.829 62.829 0 0 0 125.658 0c0-32.449-25.209-59.224-56.209-62.481zm-253 107.239a50.658 50.658 0 0 1 -48 0v-12.488a13.473 13.473 0 0 1 13.575-13.466h20.8a13.513 13.513 0 0 1 13.625 13.466zm-36-56.5v-4.909c0-6.413 5.587-11.631 12-11.631s12 5.218 12 11.631v4.909c0 6.413-5.586 11.63-12 11.63s-12-5.214-12-11.627zm62.791 11.734a51.231 51.231 0 0 1 -14.791 35.806v-3.528a25.483 25.483 0 0 0 -21.417-25.3 23.773 23.773 0 0 0 9.417-18.709v-4.909c0-13.03-10.97-23.631-24-23.631s-24 10.6-24 23.631v4.909a23.773 23.773 0 0 0 9.417 18.713 25.484 25.484 0 0 0 -21.417 25.296v3.534a50.789 50.789 0 1 1 86.791-35.8zm108.209 44.766c-8 3.854-15.319 6.046-24 6.046a49.983 49.983 0 0 1 -24-6.046v-12.488a13.154 13.154 0 0 1 13.2-13.466h20.8c7.5 0 14 5.961 14 13.466zm-36-56.5v-4.909a11.5 11.5 0 1 1 23 0v4.909a11.5 11.5 0 1 1 -23 0zm62.6 11.734a51.07 51.07 0 0 1 -14.6 35.812v-3.529a25.923 25.923 0 0 0 -21.917-25.3 23.329 23.329 0 0 0 8.917-18.714v-4.909a23.5 23.5 0 1 0 -47 0v4.909a23.773 23.773 0 0 0 9.417 18.713 25.483 25.483 0 0 0 -21.417 25.296v3.534c-10-9.192-15-21.849-15-35.8a50.8 50.8 0 1 1 101.606 0zm108.4 44.766a50.658 50.658 0 0 1 -48 0v-12.488a13.671 13.671 0 0 1 13.805-13.466h20.8a13.318 13.318 0 0 1 13.395 13.466zm-35-56.5v-4.909a11.5 11.5 0 1 1 23 0v4.909a11.5 11.5 0 1 1 -23 0zm47 47.546v-3.529a25.483 25.483 0 0 0 -21.416-25.3 23.772 23.772 0 0 0 9.416-18.714v-4.909a23.5 23.5 0 1 0 -47 0v4.909a23.331 23.331 0 0 0 8.916 18.713 25.923 25.923 0 0 0 -21.916 25.296v3.534a50.882 50.882 0 1 1 72 0z" fill="#1ae5be"/><g fill="#0635c9"><path d="m359.553 55h-153.926a27.131 27.131 0 0 1 -18.913-7.479l-33.156-31.657a39.135 39.135 0 0 0 -27.209-10.864h-78a39.4 39.4 0 0 0 -39.349 39.369v240.361a39.313 39.313 0 0 0 39.349 39.27h311.2a39.354 39.354 0 0 0 39.451-39.269v-190.131a39.677 39.677 0 0 0 -39.447-39.6zm27.447 229.731a27.357 27.357 0 0 1 -27.451 27.269h-311.2a27.3 27.3 0 0 1 -27.349-27.269v-240.362a27.386 27.386 0 0 1 27.349-27.369h78a27.239 27.239 0 0 1 18.914 7.59l33.156 31.6a39.076 39.076 0 0 0 27.208 10.81h154.2l-.007.222a27.245 27.245 0 0 1 27.18 27.378z"/><path d="m203.948 135.94a56.878 56.878 0 1 0 56.878 56.878 56.942 56.942 0 0 0 -56.878-56.878zm0 101.756a44.878 44.878 0 1 1 44.878-44.878 44.928 44.928 0 0 1 -44.878 44.882z"/><path d="m287.77 201.073a86.5 86.5 0 0 0 -.525-20.28l8.244-7.906a6 6 0 0 0 1.344-6.735l-10.521-24.052a6 6 0 0 0 -5.936-3.579l-11.387.837a78.02 78.02 0 0 0 -14.717-14.019l.334-11.361a6 6 0 0 0 -3.836-5.774l-24.477-9.447a6 6 0 0 0 -6.7 1.678l-7.387 8.565a86.36 86.36 0 0 0 -20.283.524l-7.905-8.243a6 6 0 0 0 -6.736-1.344l-24.047 10.52a6 6 0 0 0 -3.578 5.937l.837 11.386a77.96 77.96 0 0 0 -14.019 14.72l-11.361-.335a6.014 6.014 0 0 0 -5.774 3.835l-9.447 24.476a6 6 0 0 0 1.677 6.7l8.56 7.386a86.543 86.543 0 0 0 .524 20.279l-8.244 7.906a6 6 0 0 0 -1.344 6.736l10.523 24.047a6 6 0 0 0 5.936 3.578l11.386-.837a78.021 78.021 0 0 0 14.717 14.019l-.334 11.361a6 6 0 0 0 3.837 5.774l24.476 9.447a6 6 0 0 0 6.7-1.678l7.383-8.559a86.451 86.451 0 0 0 20.281-.525l7.905 8.243a6 6 0 0 0 6.735 1.345l24.047-10.52a6 6 0 0 0 3.578-5.937l-.837-11.387a77.959 77.959 0 0 0 14.02-14.716l11.36.334a5.963 5.963 0 0 0 5.775-3.837l9.446-24.474a6 6 0 0 0 -1.678-6.7zm-8.878 30.281-10.356-.3a6 6 0 0 0 -5.169 2.67 66.115 66.115 0 0 1 -15.751 16.538 6 6 0 0 0 -2.416 5.264l.762 10.366-16.32 7.139-7.191-7.5a5.99 5.99 0 0 0 -5.41-1.749 74.53 74.53 0 0 1 -23.053.595 5.99 5.99 0 0 0 -5.316 2.031l-6.687 7.75-16.572-6.4.3-10.355a6 6 0 0 0 -2.669-5.169 66.125 66.125 0 0 1 -16.539-15.752 6.018 6.018 0 0 0 -5.264-2.416l-10.365.763-7.142-16.321 7.5-7.19a6 6 0 0 0 1.749-5.41 74.565 74.565 0 0 1 -.595-23.053 6 6 0 0 0 -2.031-5.316l-7.751-6.688 6.4-16.572 10.354.3a5.987 5.987 0 0 0 5.169-2.67 66.177 66.177 0 0 1 15.752-16.539 5.994 5.994 0 0 0 2.416-5.264l-.761-10.365 16.32-7.14 7.19 7.5a5.993 5.993 0 0 0 5.41 1.749 74.551 74.551 0 0 1 23.056-.6 6.017 6.017 0 0 0 5.317-2.031l6.686-7.75 16.572 6.4-.3 10.355a6 6 0 0 0 2.669 5.169 66.158 66.158 0 0 1 16.539 15.752 6.012 6.012 0 0 0 5.263 2.416l10.367-.762 7.139 16.32-7.5 7.19a6 6 0 0 0 -1.749 5.41 74.535 74.535 0 0 1 .6 23.053 6 6 0 0 0 2.03 5.316l7.748 6.688z"/><path d="m203.948 165.917a26.9 26.9 0 1 0 26.9 26.9 26.932 26.932 0 0 0 -26.9-26.9zm0 41.8a14.9 14.9 0 1 1 14.9-14.9 14.918 14.918 0 0 1 -14.9 14.903z"/><path d="m46 41.668a6 6 0 0 0 -6 6v4.713a6 6 0 0 0 12 0v-4.713a6 6 0 0 0 -6-6z"/><path d="m46 68.906a6 6 0 0 0 -6 6v71.178a6 6 0 0 0 12 0v-71.178a6 6 0 0 0 -6-6z"/></g></svg>