<svg id="Capa_1" enable-background="new 0 0 512 512" height="512" viewBox="0 0 512 512" width="512" xmlns="http://www.w3.org/2000/svg"><g><path d="m472.366 174.455h-170.498v-137.408c0-19.889-16.176-36.069-36.06-36.069h-173.607c-1.989 0-3.897.791-5.304 2.197l-79.069 79.088c-1.406 1.407-2.196 3.314-2.196 5.303v59.689c0 4.142 3.358 7.5 7.5 7.5s7.5-3.358 7.5-7.5v-52.194h43.016c19.883 0 36.058-16.176 36.058-36.058v-43.026h166.102c11.613 0 21.06 9.452 21.06 21.07v137.408h-38.629c-12.825 0-24.1 6.735-30.494 16.849h-143.068c-4.142 0-7.5 3.358-7.5 7.5s3.358 7.5 7.5 7.5h137.757c-.162 1.382-.254 2.786-.254 4.21v23.575h-137.503c-4.142 0-7.5 3.358-7.5 7.5s3.358 7.5 7.5 7.5h137.503v74.443h-170.498c-11.607 0-21.05-9.447-21.05-21.059v-125.218c0-4.142-3.358-7.5-7.5-7.5s-7.5 3.358-7.5 7.5v125.218c0 19.883 16.172 36.059 36.05 36.059h170.498v86.889c0 1.989.79 3.897 2.197 5.303l79.078 79.079c1.406 1.407 3.314 2.197 5.303 2.197h96.929c4.142 0 7.5-3.358 7.5-7.5s-3.358-7.5-7.5-7.5h-89.425v-43.023c0-19.883-16.176-36.059-36.059-36.059h-43.023v-207.404c0-11.612 9.448-21.059 21.06-21.059h224.127c11.612 0 21.06 9.447 21.06 21.059v265.426c0 11.613-9.448 21.06-21.06 21.06h-46.68c-4.142 0-7.5 3.358-7.5 7.5s3.358 7.5 7.5 7.5h46.68c19.884 0 36.06-16.176 36.06-36.06v-265.426c-.002-19.883-16.178-36.059-36.061-36.059zm-408.718-94.394h-32.408l53.467-53.48v32.422c0 11.612-9.447 21.058-21.059 21.058zm227.613 373.916v32.42l-53.478-53.479h32.42c11.611.001 21.058 9.448 21.058 21.059z"/><path d="m188.026 428.465-64.898-43.346c-7.878-5.262-17.653-5.901-26.148-1.708-4.869 2.402-8.734 6.104-11.264 10.605-6.36-7.467-11.527-15.866-15.426-25.089-3.644-8.623-10.429-15.31-19.103-18.831-8.674-3.52-18.2-3.452-26.823.193-8.623 3.644-15.31 10.429-18.831 19.103-3.52 8.675-3.452 18.201.193 26.824 14.418 34.112 39.889 62.553 72.027 80.563l-.412 6.31c-.618 9.453 3.717 18.238 11.596 23.499 4.427 2.956 9.452 4.452 14.512 4.452 3.946 0 7.914-.91 11.636-2.747l69.985-34.541c8.494-4.193 13.933-12.338 14.55-21.79.616-9.452-3.718-18.236-11.594-23.497zm-3.375 22.52c-.264 4.041-2.589 7.524-6.221 9.316l-69.985 34.541c-3.632 1.793-7.811 1.521-11.18-.729-3.368-2.249-5.222-6.005-4.958-10.047l.726-11.107c.194-2.964-1.381-5.764-4.015-7.138-31.097-16.223-55.771-43.017-69.477-75.445-2.085-4.933-2.124-10.382-.11-15.344s5.839-8.842 10.772-10.927 10.381-2.124 15.343-.11 8.843 5.839 10.928 10.772c6.464 15.294 15.959 28.632 28.221 39.643 2.136 1.918 5.181 2.449 7.841 1.365 2.66-1.083 4.467-3.591 4.654-6.456-.114-5.005 1.559-10.247 6.427-12.456 3.632-1.793 7.811-1.52 11.18.73l64.898 43.346c3.367 2.249 5.22 6.004 4.956 10.046z"/><path d="m323.974 82.574 64.898 43.346c7.877 5.261 17.652 5.901 26.148 1.709 4.869-2.402 8.735-6.104 11.264-10.606 6.361 7.467 11.528 15.866 15.427 25.089 3.644 8.623 10.429 15.31 19.103 18.831 4.259 1.728 8.722 2.591 13.183 2.591 4.626 0 9.251-.929 13.641-2.784 8.623-3.644 15.31-10.429 18.831-19.103 3.52-8.675 3.452-18.201-.193-26.824-14.418-34.113-39.889-62.554-72.027-80.563l.412-6.309c.618-9.453-3.717-18.238-11.596-23.499-7.878-5.261-17.654-5.899-26.149-1.707l-69.984 34.541c-8.494 4.192-13.933 12.338-14.551 21.79-.618 9.454 3.717 18.238 11.593 23.498zm3.374-22.519c.264-4.041 2.589-7.524 6.221-9.316l69.984-34.541c3.632-1.794 7.811-1.52 11.181.729 3.369 2.249 5.222 6.005 4.958 10.047l-.726 11.107c-.194 2.964 1.381 5.764 4.015 7.138 31.097 16.223 55.771 43.016 69.477 75.445 2.085 4.933 2.124 10.382.11 15.344s-5.839 8.842-10.772 10.927c-4.932 2.084-10.381 2.124-15.344.11-4.962-2.014-8.842-5.839-10.927-10.772-6.464-15.294-15.959-28.631-28.221-39.643-2.143-1.927-5.204-2.444-7.841-1.366-3.986 1.438-4.93 5.813-4.859 9.597-.264 4.041-2.59 7.525-6.223 9.317-3.632 1.793-7.811 1.52-11.18-.731l-64.898-43.346c-3.365-2.25-5.219-6.005-4.955-10.046z"/><path d="m74.675 120.738h158.144c4.142 0 7.5-3.358 7.5-7.5s-3.358-7.5-7.5-7.5h-158.144c-4.142 0-7.5 3.358-7.5 7.5s3.358 7.5 7.5 7.5z"/><path d="m74.675 163.523h158.144c4.142 0 7.5-3.358 7.5-7.5s-3.358-7.5-7.5-7.5h-158.144c-4.142 0-7.5 3.358-7.5 7.5s3.358 7.5 7.5 7.5z"/><path d="m281.229 274.35h158.144c4.142 0 7.5-3.358 7.5-7.5s-3.358-7.5-7.5-7.5h-158.144c-4.142 0-7.5 3.358-7.5 7.5s3.358 7.5 7.5 7.5z"/><path d="m281.229 317.136h158.144c4.142 0 7.5-3.358 7.5-7.5s-3.358-7.5-7.5-7.5h-158.144c-4.142 0-7.5 3.358-7.5 7.5s3.358 7.5 7.5 7.5z"/><path d="m281.229 359.921h158.144c4.142 0 7.5-3.358 7.5-7.5s-3.358-7.5-7.5-7.5h-158.144c-4.142 0-7.5 3.358-7.5 7.5s3.358 7.5 7.5 7.5z"/><path d="m281.229 402.706h158.144c4.142 0 7.5-3.358 7.5-7.5s-3.358-7.5-7.5-7.5h-158.144c-4.142 0-7.5 3.358-7.5 7.5s3.358 7.5 7.5 7.5z"/></g></svg>